<?xml version="1.0" encoding="UTF-8"?>
<svg width="120" height="40" viewBox="0 0 120 40" fill="none" xmlns="http://www.w3.org/2000/svg">
  <g clip-path="url(#clip0_1_2)">
    <path d="M22.6184 7.76709C25.7696 12.2267 25.7263 18.0936 26.1764 23.9605C26.6265 29.8274 27.5864 35.6944 26.425 40C25.2637 44.3056 21.9708 47.0493 18.678 47.9691C15.3851 48.8889 12.0923 47.9691 9.54014 45.537C6.98797 43.1049 5.17645 39.0802 3.56561 34.3136C1.95477 29.547 1.98271 24.0493 3.88684 19.2438C5.80893 14.4382 7.71306 10.2654 10.8213 7.30679C13.9295 4.34815 21.8349 6.05617 22.6184 7.76709Z" fill="white"/>
    <path d="M46.56 30V10.72H50.64L58.4 22.84H56.56L64.16 10.72H68.2L68.24 30H63.96V18.08L65.04 18.32L59.52 27.24H55.24L49.6 18.32L50.84 18.08V30H46.56Z" fill="white"/>
    <path d="M74.3756 30V10.72H81.6956C83.7489 10.72 85.5089 11.1333 86.9756 11.96C88.4422 12.7733 89.5622 13.92 90.3356 15.4C91.1089 16.8667 91.4956 18.5733 91.4956 20.52C91.4956 22.4667 91.1089 24.1733 90.3356 25.64C89.5622 27.1067 88.4422 28.2533 86.9756 29.08C85.5089 29.8933 83.7489 30.3067 81.6956 30H74.3756ZM78.7356 26.2H81.4956C82.6689 26.2 83.6689 26 84.4956 25.6C85.3222 25.1867 85.9489 24.5733 86.3756 23.76C86.8156 22.9467 87.0356 21.88 87.0356 20.56C87.0356 19.24 86.8156 18.1733 86.3756 17.36C85.9489 16.5467 85.3222 15.9333 84.4956 15.52C83.6689 15.1067 82.6689 14.9 81.4956 14.9H78.7356V26.2Z" fill="white"/>
    <path d="M95.4944 30V10.72H108.094V14.58H99.8544V18.38H107.434V22.24H99.8544V26.14H108.214V30H95.4944Z" fill="white"/>
  </g>
  <defs>
    <clipPath id="clip0_1_2">
      <rect width="120" height="40" fill="white"/>
    </clipPath>
  </defs>
</svg>